<?xml version="1.0" standalone="no"?>
<!DOCTYPE svg PUBLIC "-//W3C//DTD SVG 20010904//EN"
 "http://www.w3.org/TR/2001/REC-SVG-20010904/DTD/svg10.dtd">
<svg version="1.0" xmlns="http://www.w3.org/2000/svg"
 width="700.000000pt" height="700.000000pt" viewBox="0 0 700.000000 700.000000"
 preserveAspectRatio="xMidYMid meet">
<metadata>
Created by potrace 1.14, written by Peter Selinger 2001-2017
</metadata>
<g transform="translate(0.000000,700.000000) scale(0.100000,-0.100000)"
fill="#000000" stroke="none">
<path d="M1225 6962 c-24 -3 -37 -15 -66 -60 -57 -90 -203 -316 -346 -535 -72
-111 -166 -256 -209 -322 -43 -66 -111 -172 -153 -235 -41 -63 -98 -151 -126
-195 -143 -218 -243 -374 -263 -407 l-23 -37 2874 0 2873 0 75 115 c40 63 106
163 144 222 39 59 118 182 177 272 59 91 141 217 182 280 118 181 220 339 231
358 26 43 71 107 78 110 4 2 7 8 7 12 0 8 200 320 251 393 l20 27 -38 0 c-268
3 -5666 4 -5688 2z"/>
<path d="M3161 4390 c-7 -5 -32 -43 -246 -374 -61 -94 -155 -239 -210 -322
-55 -84 -121 -186 -146 -226 -26 -40 -162 -250 -302 -465 -141 -216 -253 -393
-249 -394 25 -4 2115 -3 2121 1 7 5 74 105 236 355 95 146 610 940 692 1065
148 228 233 360 233 362 0 5 -2122 3 -2129 -2z"/>
<path d="M1419 1732 c-35 -53 -155 -239 -267 -412 -113 -173 -219 -337 -237
-365 -18 -27 -84 -129 -147 -225 -62 -96 -144 -222 -182 -280 -37 -58 -112
-172 -165 -255 -54 -82 -97 -152 -95 -153 1 -2 1230 -4 2730 -4 l2728 0 22 28
c12 15 75 109 139 208 64 100 145 226 181 281 36 55 91 141 123 190 32 50 139
214 237 365 99 151 211 324 249 383 39 59 98 151 132 202 34 52 67 104 73 114
10 20 -3 20 -2724 20 l-2734 0 -63 -97z"/>
</g>
</svg>
