<svg width="345" height="229" viewBox="0 0 345 229" fill="none" xmlns="http://www.w3.org/2000/svg">
<g clip-path="url(#clip0_199_2)">
<path d="M67 135.55V128.262L85.6405 100.091H68.822V90H100.497V97.288L81.8563 125.459H100.637V135.55H67Z" fill="white"/>
<path d="M112.731 135.55V90H142.164V100.091H124.785V107.239H139.641V117.33H124.785V125.459H142.864V135.55H112.731Z" fill="white"/>
<path fill-rule="evenodd" clip-rule="evenodd" d="M156.641 90V135.55H168.694V120.273H173.319L181.168 135.55H194.622L184.741 117.891C186.937 116.676 188.712 114.994 190.067 112.845C191.422 110.696 192.1 107.986 192.1 104.716C192.1 100.932 191.259 97.9654 189.577 95.8164C187.895 93.6674 185.676 92.1607 182.919 91.2964C180.163 90.4321 177.15 90 173.88 90H156.641ZM173.039 110.743H168.694V99.5305H173.039C175.421 99.5305 177.232 99.9042 178.47 100.652C179.708 101.399 180.327 102.754 180.327 104.716C180.327 108.734 177.897 110.743 173.039 110.743Z" fill="white"/>
<path d="M212.043 135.55L198.588 90H211.342L216.107 109.902C216.761 112.331 217.333 114.725 217.824 117.085C218.315 119.444 218.863 121.862 219.471 124.338H219.751C220.405 121.862 220.977 119.444 221.468 117.085C221.959 114.725 222.507 112.331 223.115 109.902L227.74 90H240.073L226.619 135.55H212.043Z" fill="white"/>
<path d="M249.365 135.55V90H278.797V100.091H261.418V107.239H276.274V117.33H261.418V125.459H279.498V135.55H249.365Z" fill="white"/>
<path fill-rule="evenodd" clip-rule="evenodd" d="M206.96 0L195.535 17.594H139V17.5698L150.41 0H206.96Z" fill="white"/>
<path fill-rule="evenodd" clip-rule="evenodd" d="M190.68 25.2435L179.254 42.8374H158.276L169.701 25.2435H190.68Z" fill="white"/>
<path fill-rule="evenodd" clip-rule="evenodd" d="M207 50.487L195.574 68.081H141.76L153.186 50.487H207Z" fill="white"/>
<path d="M72.873 173.19C71.8976 173.19 70.9983 173.025 70.175 172.696C69.3643 172.354 68.655 171.879 68.047 171.271C67.4516 170.65 66.9893 169.922 66.66 169.086C66.3433 168.25 66.185 167.332 66.185 166.331C66.185 165.356 66.356 164.456 66.698 163.633C67.04 162.797 67.5213 162.069 68.142 161.448C68.7626 160.827 69.4846 160.346 70.308 160.004C71.144 159.662 72.0496 159.491 73.025 159.491C73.6583 159.491 74.279 159.58 74.887 159.757C75.5076 159.922 76.0713 160.175 76.578 160.517C77.0973 160.846 77.5406 161.233 77.908 161.676L76.122 163.671C75.6786 163.19 75.1973 162.822 74.678 162.569C74.1586 162.316 73.6013 162.189 73.006 162.189C72.4613 162.189 71.9483 162.29 71.467 162.493C70.9983 162.683 70.5866 162.962 70.232 163.329C69.8773 163.696 69.5986 164.133 69.396 164.64C69.1933 165.147 69.092 165.71 69.092 166.331C69.092 166.964 69.187 167.541 69.377 168.06C69.5796 168.567 69.8646 169.004 70.232 169.371C70.5993 169.726 71.0363 170.004 71.543 170.207C72.0623 170.397 72.6323 170.492 73.253 170.492C73.6583 170.492 74.0446 170.435 74.412 170.321C74.792 170.207 75.1466 170.049 75.476 169.846C75.8053 169.643 76.0966 169.409 76.35 169.143L77.737 171.366C77.4456 171.708 77.0403 172.018 76.521 172.297C76.0016 172.576 75.4253 172.797 74.792 172.962C74.1586 173.114 73.519 173.19 72.873 173.19ZM88.88 173.19C87.9047 173.19 86.999 173.019 86.163 172.677C85.3397 172.335 84.624 171.86 84.016 171.252C83.4207 170.631 82.952 169.903 82.61 169.067C82.2807 168.231 82.116 167.313 82.116 166.312C82.116 165.324 82.2807 164.412 82.61 163.576C82.952 162.74 83.4207 162.012 84.016 161.391C84.624 160.77 85.3397 160.289 86.163 159.947C86.999 159.605 87.9047 159.434 88.88 159.434C89.8554 159.434 90.7484 159.605 91.559 159.947C92.3824 160.289 93.098 160.77 93.706 161.391C94.314 162.012 94.7827 162.74 95.112 163.576C95.454 164.412 95.625 165.33 95.625 166.331C95.625 167.306 95.454 168.212 95.112 169.048C94.7827 169.884 94.314 170.612 93.706 171.233C93.098 171.854 92.3824 172.335 91.559 172.677C90.7484 173.019 89.8554 173.19 88.88 173.19ZM88.88 170.492C89.4374 170.492 89.9504 170.391 90.419 170.188C90.8877 169.973 91.293 169.681 91.635 169.314C91.9897 168.934 92.262 168.491 92.452 167.984C92.642 167.477 92.737 166.926 92.737 166.331C92.737 165.723 92.642 165.166 92.452 164.659C92.262 164.152 91.9897 163.709 91.635 163.329C91.293 162.949 90.8877 162.658 90.419 162.455C89.9504 162.24 89.4374 162.132 88.88 162.132C88.3227 162.132 87.8034 162.24 87.322 162.455C86.8534 162.658 86.4417 162.949 86.087 163.329C85.745 163.696 85.479 164.14 85.289 164.659C85.099 165.166 85.004 165.723 85.004 166.331C85.004 167.129 85.1687 167.845 85.498 168.478C85.84 169.099 86.3024 169.593 86.885 169.96C87.4677 170.315 88.1327 170.492 88.88 170.492ZM101.055 173V159.7H103.601L110.973 169.656H110.46C110.371 169.01 110.295 168.37 110.232 167.737C110.169 167.091 110.124 166.407 110.099 165.685C110.086 164.963 110.08 164.159 110.08 163.272V159.7H112.854V173H110.27L102.765 162.987H103.449C103.538 163.823 103.607 164.513 103.658 165.058C103.709 165.603 103.747 166.059 103.772 166.426C103.797 166.781 103.816 167.097 103.829 167.376C103.842 167.655 103.848 167.946 103.848 168.25V173H101.055ZM121.912 173V162.265H118.074V159.7H128.752V162.265H124.762V173H121.912ZM133.956 173V159.7H142.924V162.208H136.749V170.492H143.057V173H133.956ZM135.286 167.433V165.001H142.012V167.433H135.286ZM148.867 173V159.7H151.413L158.785 169.656H158.272C158.183 169.01 158.107 168.37 158.044 167.737C157.98 167.091 157.936 166.407 157.911 165.685C157.898 164.963 157.892 164.159 157.892 163.272V159.7H160.666V173H158.082L150.577 162.987H151.261C151.349 163.823 151.419 164.513 151.47 165.058C151.52 165.603 151.558 166.059 151.584 166.426C151.609 166.781 151.628 167.097 151.641 167.376C151.653 167.655 151.66 167.946 151.66 168.25V173H148.867ZM169.724 173V162.265H165.886V159.7H176.564V162.265H172.574V173H169.724ZM194.738 173.19C193.497 173.19 192.433 172.968 191.546 172.525C190.672 172.069 189.919 171.41 189.285 170.549L191.071 168.535C191.692 169.396 192.306 169.985 192.914 170.302C193.535 170.606 194.2 170.758 194.909 170.758C195.302 170.758 195.65 170.701 195.954 170.587C196.271 170.473 196.518 170.315 196.695 170.112C196.885 169.909 196.98 169.675 196.98 169.409C196.98 169.206 196.936 169.023 196.847 168.858C196.759 168.681 196.632 168.529 196.467 168.402C196.303 168.263 196.106 168.142 195.878 168.041C195.65 167.927 195.397 167.832 195.118 167.756C194.84 167.68 194.536 167.61 194.206 167.547C193.497 167.395 192.876 167.199 192.344 166.958C191.812 166.717 191.369 166.426 191.014 166.084C190.66 165.742 190.394 165.349 190.216 164.906C190.052 164.45 189.969 163.943 189.969 163.386C189.969 162.601 190.191 161.917 190.634 161.334C191.078 160.739 191.667 160.276 192.401 159.947C193.136 159.605 193.947 159.434 194.833 159.434C196.037 159.434 197.025 159.637 197.797 160.042C198.583 160.447 199.21 161.017 199.678 161.752L197.854 163.538C197.462 162.993 197.012 162.582 196.505 162.303C195.999 162.024 195.454 161.885 194.871 161.885C194.466 161.885 194.105 161.942 193.788 162.056C193.484 162.157 193.25 162.316 193.085 162.531C192.921 162.734 192.838 162.974 192.838 163.253C192.838 163.481 192.895 163.684 193.009 163.861C193.123 164.038 193.282 164.197 193.484 164.336C193.7 164.463 193.959 164.577 194.263 164.678C194.567 164.779 194.903 164.862 195.27 164.925C195.967 165.064 196.594 165.254 197.151 165.495C197.709 165.723 198.184 166.002 198.576 166.331C198.982 166.66 199.292 167.04 199.507 167.471C199.723 167.902 199.83 168.383 199.83 168.915C199.83 169.814 199.615 170.581 199.184 171.214C198.754 171.847 198.158 172.335 197.398 172.677C196.638 173.019 195.752 173.19 194.738 173.19ZM208.479 173V166.369L208.612 167.3L203.235 159.7H206.503L210.607 165.571L209.334 165.514L213.02 159.7H216.193L211.044 167.509L211.329 166.198V173H208.479ZM224.578 173.19C223.337 173.19 222.273 172.968 221.386 172.525C220.512 172.069 219.758 171.41 219.125 170.549L220.911 168.535C221.532 169.396 222.146 169.985 222.754 170.302C223.375 170.606 224.04 170.758 224.749 170.758C225.142 170.758 225.49 170.701 225.794 170.587C226.111 170.473 226.358 170.315 226.535 170.112C226.725 169.909 226.82 169.675 226.82 169.409C226.82 169.206 226.776 169.023 226.687 168.858C226.598 168.681 226.472 168.529 226.307 168.402C226.142 168.263 225.946 168.142 225.718 168.041C225.49 167.927 225.237 167.832 224.958 167.756C224.679 167.68 224.375 167.61 224.046 167.547C223.337 167.395 222.716 167.199 222.184 166.958C221.652 166.717 221.209 166.426 220.854 166.084C220.499 165.742 220.233 165.349 220.056 164.906C219.891 164.45 219.809 163.943 219.809 163.386C219.809 162.601 220.031 161.917 220.474 161.334C220.917 160.739 221.506 160.276 222.241 159.947C222.976 159.605 223.786 159.434 224.673 159.434C225.876 159.434 226.864 159.637 227.637 160.042C228.422 160.447 229.049 161.017 229.518 161.752L227.694 163.538C227.301 162.993 226.852 162.582 226.345 162.303C225.838 162.024 225.294 161.885 224.711 161.885C224.306 161.885 223.945 161.942 223.628 162.056C223.324 162.157 223.09 162.316 222.925 162.531C222.76 162.734 222.678 162.974 222.678 163.253C222.678 163.481 222.735 163.684 222.849 163.861C222.963 164.038 223.121 164.197 223.324 164.336C223.539 164.463 223.799 164.577 224.103 164.678C224.407 164.779 224.743 164.862 225.11 164.925C225.807 165.064 226.434 165.254 226.991 165.495C227.548 165.723 228.023 166.002 228.416 166.331C228.821 166.66 229.132 167.04 229.347 167.471C229.562 167.902 229.67 168.383 229.67 168.915C229.67 169.814 229.455 170.581 229.024 171.214C228.593 171.847 227.998 172.335 227.238 172.677C226.478 173.019 225.591 173.19 224.578 173.19ZM237.856 173V162.265H234.018V159.7H244.696V162.265H240.706V173H237.856ZM249.901 173V159.7H258.869V162.208H252.694V170.492H259.002V173H249.901ZM251.231 167.433V165.001H257.957V167.433H251.231ZM264.811 173V159.7H267.414L272.24 167.566L270.549 167.547L275.451 159.7H277.959V173H275.166V168.497C275.166 167.344 275.191 166.306 275.242 165.381C275.305 164.456 275.407 163.544 275.546 162.645L275.869 163.538L271.974 169.561H270.701L266.901 163.576L267.205 162.645C267.357 163.494 267.458 164.368 267.509 165.267C267.572 166.166 267.604 167.243 267.604 168.497V173H264.811Z" fill="white" fill-opacity="0.7"/>
<path d="M134.861 210L140.086 196.7H142.632L147.819 210H144.912L142.214 202.837C142.138 202.622 142.043 202.356 141.929 202.039C141.827 201.722 141.72 201.387 141.606 201.032C141.492 200.677 141.384 200.342 141.283 200.025C141.194 199.696 141.118 199.43 141.055 199.227L141.568 199.208C141.492 199.487 141.403 199.784 141.302 200.101C141.213 200.405 141.112 200.722 140.998 201.051C140.896 201.38 140.789 201.697 140.675 202.001C140.573 202.305 140.472 202.596 140.371 202.875L137.692 210H134.861ZM137.293 207.207L138.243 204.889H144.304L145.273 207.207H137.293ZM152.554 210V196.7H155.404V207.435H161.427V210H152.554ZM166.927 210V196.7H172.57C173.368 196.7 174.083 196.89 174.717 197.27C175.35 197.637 175.85 198.144 176.218 198.79C176.598 199.423 176.788 200.145 176.788 200.956C176.788 201.779 176.598 202.527 176.218 203.198C175.85 203.857 175.35 204.382 174.717 204.775C174.083 205.155 173.368 205.345 172.57 205.345H169.777V210H166.927ZM169.739 202.761H172.266C172.557 202.761 172.823 202.685 173.064 202.533C173.304 202.381 173.501 202.172 173.653 201.906C173.805 201.64 173.881 201.336 173.881 200.994C173.881 200.652 173.805 200.354 173.653 200.101C173.501 199.848 173.304 199.645 173.064 199.493C172.823 199.341 172.557 199.265 172.266 199.265H169.739V202.761ZM190.588 210V196.7H193.438V210H190.588ZM182.19 210V196.7H185.04V210H182.19ZM183.349 204.68V202.058H192.032V204.68H183.349ZM198.177 210L203.402 196.7H205.948L211.135 210H208.228L205.53 202.837C205.454 202.622 205.359 202.356 205.245 202.039C205.143 201.722 205.036 201.387 204.922 201.032C204.808 200.677 204.7 200.342 204.599 200.025C204.51 199.696 204.434 199.43 204.371 199.227L204.884 199.208C204.808 199.487 204.719 199.784 204.618 200.101C204.529 200.405 204.428 200.722 204.314 201.051C204.212 201.38 204.105 201.697 203.991 202.001C203.889 202.305 203.788 202.596 203.687 202.875L201.008 210H198.177ZM200.609 207.207L201.559 204.889H207.62L208.589 207.207H200.609Z" fill="white" fill-opacity="0.5"/>
<rect x="127.25" y="189.25" width="91.5" height="29.5" rx="10.75" stroke="white" stroke-opacity="0.5" stroke-width="2.5"/>
</g>
<defs>
<clipPath id="clip0_199_2">
<rect width="345" height="229" fill="white"/>
</clipPath>
</defs>
</svg>
