<svg width="345" height="241" viewBox="0 0 345 241" fill="none" xmlns="http://www.w3.org/2000/svg">
<g clip-path="url(#clip0_197_2)">
<path fill-rule="evenodd" clip-rule="evenodd" d="M88.8424 10.0004L73.906 34.2057H0V34.1724L14.9158 10.0004L88.8424 10.0004Z" fill="url(#paint0_linear_197_2)"/>
<path fill-rule="evenodd" clip-rule="evenodd" d="M67.5592 44.7297L52.6228 68.9349H25.1984L40.1348 44.7297L67.5592 44.7297Z" fill="url(#paint1_linear_197_2)"/>
<path fill-rule="evenodd" clip-rule="evenodd" d="M88.8941 79.459L73.9577 103.664H3.6083L18.5447 79.459H88.8941Z" fill="url(#paint2_linear_197_2)"/>
<path d="M133.514 79.4585V72.1254L151.336 43.78H135.256V33.6264H165.54V40.9596L147.718 69.3049H165.674V79.4585H133.514Z" fill="url(#paint3_linear_197_2)"/>
<path d="M177.238 79.4585V33.6264H205.378V43.78H188.762V50.9721H202.966V61.1257H188.762V69.3049H206.048V79.4585H177.238Z" fill="url(#paint4_linear_197_2)"/>
<path fill-rule="evenodd" clip-rule="evenodd" d="M219.219 33.6264V79.4585H230.743V64.0871H235.165L242.669 79.4585H255.533L246.086 61.6898C248.185 60.4676 249.883 58.7753 251.178 56.613C252.473 54.4506 253.121 51.7242 253.121 48.4337C253.121 44.6261 252.317 41.6412 250.709 39.4788C249.101 37.3165 246.979 35.8005 244.344 34.9309C241.709 34.0612 238.828 33.6264 235.701 33.6264H219.219ZM234.897 54.4977H230.743V43.2159H234.897C237.175 43.2159 238.906 43.592 240.09 44.3441C241.273 45.0962 241.865 46.4594 241.865 48.4337C241.865 52.4763 239.542 54.4977 234.897 54.4977Z" fill="url(#paint5_linear_197_2)"/>
<path d="M272.188 79.4585L259.324 33.6264H271.518L276.074 53.6515C276.7 56.0959 277.247 58.505 277.716 60.8789C278.185 63.2528 278.71 65.6854 279.29 68.1768H279.558C280.184 65.6854 280.731 63.2528 281.2 60.8789C281.669 58.505 282.194 56.0959 282.774 53.6515L287.196 33.6264H298.988L286.124 79.4585H272.188Z" fill="url(#paint6_linear_197_2)"/>
<path d="M307.872 79.4585V33.6264H336.012V43.78H319.396V50.9721H333.6V61.1257H319.396V69.3049H336.682V79.4585H307.872Z" fill="url(#paint7_linear_197_2)"/>
<path d="M15.1942 159.3C13.6542 159.3 12.2342 159.04 10.9342 158.52C9.65418 157.98 8.53418 157.23 7.57418 156.27C6.63418 155.29 5.90418 154.14 5.38418 152.82C4.88418 151.5 4.63418 150.05 4.63418 148.47C4.63418 146.93 4.90418 145.51 5.44418 144.21C5.98418 142.89 6.74418 141.74 7.72418 140.76C8.70418 139.78 9.84418 139.02 11.1442 138.48C12.4642 137.94 13.8942 137.67 15.4342 137.67C16.4342 137.67 17.4142 137.81 18.3742 138.09C19.3542 138.35 20.2442 138.75 21.0442 139.29C21.8642 139.81 22.5642 140.42 23.1442 141.12L20.3242 144.27C19.6242 143.51 18.8642 142.93 18.0442 142.53C17.2242 142.13 16.3442 141.93 15.4042 141.93C14.5442 141.93 13.7342 142.09 12.9742 142.41C12.2342 142.71 11.5842 143.15 11.0242 143.73C10.4642 144.31 10.0242 145 9.70418 145.8C9.38418 146.6 9.22418 147.49 9.22418 148.47C9.22418 149.47 9.37418 150.38 9.67418 151.2C9.99418 152 10.4442 152.69 11.0242 153.27C11.6042 153.83 12.2942 154.27 13.0942 154.59C13.9142 154.89 14.8142 155.04 15.7942 155.04C16.4342 155.04 17.0442 154.95 17.6242 154.77C18.2242 154.59 18.7842 154.34 19.3042 154.02C19.8242 153.7 20.2842 153.33 20.6842 152.91L22.8742 156.42C22.4142 156.96 21.7742 157.45 20.9542 157.89C20.1342 158.33 19.2242 158.68 18.2242 158.94C17.2242 159.18 16.2142 159.3 15.1942 159.3ZM40.4685 159.3C38.9285 159.3 37.4985 159.03 36.1785 158.49C34.8785 157.95 33.7485 157.2 32.7885 156.24C31.8485 155.26 31.1085 154.11 30.5685 152.79C30.0485 151.47 29.7885 150.02 29.7885 148.44C29.7885 146.88 30.0485 145.44 30.5685 144.12C31.1085 142.8 31.8485 141.65 32.7885 140.67C33.7485 139.69 34.8785 138.93 36.1785 138.39C37.4985 137.85 38.9285 137.58 40.4685 137.58C42.0085 137.58 43.4185 137.85 44.6985 138.39C45.9985 138.93 47.1285 139.69 48.0885 140.67C49.0485 141.65 49.7885 142.8 50.3085 144.12C50.8485 145.44 51.1185 146.89 51.1185 148.47C51.1185 150.01 50.8485 151.44 50.3085 152.76C49.7885 154.08 49.0485 155.23 48.0885 156.21C47.1285 157.19 45.9985 157.95 44.6985 158.49C43.4185 159.03 42.0085 159.3 40.4685 159.3ZM40.4685 155.04C41.3485 155.04 42.1585 154.88 42.8985 154.56C43.6385 154.22 44.2785 153.76 44.8185 153.18C45.3785 152.58 45.8085 151.88 46.1085 151.08C46.4085 150.28 46.5585 149.41 46.5585 148.47C46.5585 147.51 46.4085 146.63 46.1085 145.83C45.8085 145.03 45.3785 144.33 44.8185 143.73C44.2785 143.13 43.6385 142.67 42.8985 142.35C42.1585 142.01 41.3485 141.84 40.4685 141.84C39.5885 141.84 38.7685 142.01 38.0085 142.35C37.2685 142.67 36.6185 143.13 36.0585 143.73C35.5185 144.31 35.0985 145.01 34.7985 145.83C34.4985 146.63 34.3485 147.51 34.3485 148.47C34.3485 149.73 34.6085 150.86 35.1285 151.86C35.6685 152.84 36.3985 153.62 37.3185 154.2C38.2385 154.76 39.2885 155.04 40.4685 155.04ZM59.6919 159V138H63.7119L75.3519 153.72H74.5419C74.4019 152.7 74.2819 151.69 74.1819 150.69C74.0819 149.67 74.0119 148.59 73.9719 147.45C73.9519 146.31 73.9419 145.04 73.9419 143.64V138H78.3219V159H74.2419L62.3919 143.19H63.4719C63.6119 144.51 63.7219 145.6 63.8019 146.46C63.8819 147.32 63.9419 148.04 63.9819 148.62C64.0219 149.18 64.0519 149.68 64.0719 150.12C64.0919 150.56 64.1019 151.02 64.1019 151.5V159H59.6919ZM92.6239 159V142.05H86.5639V138H103.424V142.05H97.1239V159H92.6239ZM111.641 159V138H125.801V141.96H116.051V155.04H126.011V159H111.641ZM113.741 150.21V146.37H124.361V150.21H113.741ZM135.184 159V138H139.204L150.844 153.72H150.034C149.894 152.7 149.774 151.69 149.674 150.69C149.574 149.67 149.504 148.59 149.464 147.45C149.444 146.31 149.434 145.04 149.434 143.64V138H153.814V159H149.734L137.884 143.19H138.964C139.104 144.51 139.214 145.6 139.294 146.46C139.374 147.32 139.434 148.04 139.474 148.62C139.514 149.18 139.544 149.68 139.564 150.12C139.584 150.56 139.594 151.02 139.594 151.5V159H135.184ZM168.116 159V142.05H162.056V138H178.916V142.05H172.616V159H168.116ZM207.613 159.3C205.653 159.3 203.973 158.95 202.573 158.25C201.193 157.53 200.003 156.49 199.003 155.13L201.823 151.95C202.803 153.31 203.773 154.24 204.733 154.74C205.713 155.22 206.763 155.46 207.883 155.46C208.503 155.46 209.053 155.37 209.533 155.19C210.033 155.01 210.423 154.76 210.703 154.44C211.003 154.12 211.153 153.75 211.153 153.33C211.153 153.01 211.083 152.72 210.943 152.46C210.803 152.18 210.603 151.94 210.343 151.74C210.083 151.52 209.773 151.33 209.413 151.17C209.053 150.99 208.653 150.84 208.213 150.72C207.773 150.6 207.293 150.49 206.773 150.39C205.653 150.15 204.673 149.84 203.833 149.46C202.993 149.08 202.293 148.62 201.733 148.08C201.173 147.54 200.753 146.92 200.473 146.22C200.213 145.5 200.083 144.7 200.083 143.82C200.083 142.58 200.433 141.5 201.133 140.58C201.833 139.64 202.763 138.91 203.923 138.39C205.083 137.85 206.363 137.58 207.763 137.58C209.663 137.58 211.223 137.9 212.443 138.54C213.683 139.18 214.673 140.08 215.413 141.24L212.533 144.06C211.913 143.2 211.203 142.55 210.403 142.11C209.603 141.67 208.743 141.45 207.823 141.45C207.183 141.45 206.613 141.54 206.113 141.72C205.633 141.88 205.263 142.13 205.003 142.47C204.743 142.79 204.613 143.17 204.613 143.61C204.613 143.97 204.703 144.29 204.883 144.57C205.063 144.85 205.313 145.1 205.633 145.32C205.973 145.52 206.383 145.7 206.863 145.86C207.343 146.02 207.873 146.15 208.453 146.25C209.553 146.47 210.543 146.77 211.423 147.15C212.303 147.51 213.053 147.95 213.673 148.47C214.313 148.99 214.803 149.59 215.143 150.27C215.483 150.95 215.653 151.71 215.653 152.55C215.653 153.97 215.313 155.18 214.633 156.18C213.953 157.18 213.013 157.95 211.813 158.49C210.613 159.03 209.213 159.3 207.613 159.3ZM229.31 159V148.53L229.52 150L221.03 138H226.19L232.67 147.27L230.66 147.18L236.48 138H241.49L233.36 150.33L233.81 148.26V159H229.31ZM254.728 159.3C252.768 159.3 251.088 158.95 249.688 158.25C248.308 157.53 247.118 156.49 246.118 155.13L248.938 151.95C249.918 153.31 250.888 154.24 251.848 154.74C252.828 155.22 253.878 155.46 254.998 155.46C255.618 155.46 256.168 155.37 256.648 155.19C257.148 155.01 257.538 154.76 257.818 154.44C258.118 154.12 258.268 153.75 258.268 153.33C258.268 153.01 258.198 152.72 258.058 152.46C257.918 152.18 257.718 151.94 257.458 151.74C257.198 151.52 256.888 151.33 256.528 151.17C256.168 150.99 255.768 150.84 255.328 150.72C254.888 150.6 254.408 150.49 253.888 150.39C252.768 150.15 251.788 149.84 250.948 149.46C250.108 149.08 249.408 148.62 248.848 148.08C248.288 147.54 247.868 146.92 247.588 146.22C247.328 145.5 247.198 144.7 247.198 143.82C247.198 142.58 247.548 141.5 248.248 140.58C248.948 139.64 249.878 138.91 251.038 138.39C252.198 137.85 253.478 137.58 254.878 137.58C256.778 137.58 258.338 137.9 259.558 138.54C260.798 139.18 261.788 140.08 262.528 141.24L259.648 144.06C259.028 143.2 258.318 142.55 257.518 142.11C256.718 141.67 255.858 141.45 254.938 141.45C254.298 141.45 253.728 141.54 253.228 141.72C252.748 141.88 252.378 142.13 252.118 142.47C251.858 142.79 251.728 143.17 251.728 143.61C251.728 143.97 251.818 144.29 251.998 144.57C252.178 144.85 252.428 145.1 252.748 145.32C253.088 145.52 253.498 145.7 253.978 145.86C254.458 146.02 254.988 146.15 255.568 146.25C256.668 146.47 257.658 146.77 258.538 147.15C259.418 147.51 260.168 147.95 260.788 148.47C261.428 148.99 261.918 149.59 262.258 150.27C262.598 150.95 262.768 151.71 262.768 152.55C262.768 153.97 262.428 155.18 261.748 156.18C261.068 157.18 260.128 157.95 258.928 158.49C257.728 159.03 256.328 159.3 254.728 159.3ZM275.694 159V142.05H269.634V138H286.494V142.05H280.194V159H275.694ZM294.711 159V138H308.871V141.96H299.121V155.04H309.081V159H294.711ZM296.811 150.21V146.37H307.431V150.21H296.811ZM318.254 159V138H322.364L329.984 150.42L327.314 150.39L335.054 138H339.014V159H334.604V151.89C334.604 150.07 334.644 148.43 334.724 146.97C334.824 145.51 334.984 144.07 335.204 142.65L335.714 144.06L329.564 153.57H327.554L321.554 144.12L322.034 142.65C322.274 143.99 322.434 145.37 322.514 146.79C322.614 148.21 322.664 149.91 322.664 151.89V159H318.254Z" fill="#444444"/>
<path d="M112.28 218L120.53 197H124.55L132.74 218H128.15L123.89 206.69C123.77 206.35 123.62 205.93 123.44 205.43C123.28 204.93 123.11 204.4 122.93 203.84C122.75 203.28 122.58 202.75 122.42 202.25C122.28 201.73 122.16 201.31 122.06 200.99L122.87 200.96C122.75 201.4 122.61 201.87 122.45 202.37C122.31 202.85 122.15 203.35 121.97 203.87C121.81 204.39 121.64 204.89 121.46 205.37C121.3 205.85 121.14 206.31 120.98 206.75L116.75 218H112.28ZM116.12 213.59L117.62 209.93H127.19L128.72 213.59H116.12ZM140.217 218V197H144.717V213.95H154.227V218H140.217ZM162.911 218V197H171.821C173.081 197 174.211 197.3 175.211 197.9C176.211 198.48 177.001 199.28 177.581 200.3C178.181 201.3 178.481 202.44 178.481 203.72C178.481 205.02 178.181 206.2 177.581 207.26C177.001 208.3 176.211 209.13 175.211 209.75C174.211 210.35 173.081 210.65 171.821 210.65H167.411V218H162.911ZM167.351 206.57H171.341C171.801 206.57 172.221 206.45 172.601 206.21C172.981 205.97 173.291 205.64 173.531 205.22C173.771 204.8 173.891 204.32 173.891 203.78C173.891 203.24 173.771 202.77 173.531 202.37C173.291 201.97 172.981 201.65 172.601 201.41C172.221 201.17 171.801 201.05 171.341 201.05H167.351V206.57ZM200.27 218V197H204.77V218H200.27ZM187.01 218V197H191.51V218H187.01ZM188.84 209.6V205.46H202.55V209.6H188.84ZM212.253 218L220.503 197H224.523L232.713 218H228.123L223.863 206.69C223.743 206.35 223.593 205.93 223.413 205.43C223.253 204.93 223.083 204.4 222.903 203.84C222.723 203.28 222.553 202.75 222.393 202.25C222.253 201.73 222.133 201.31 222.033 200.99L222.843 200.96C222.723 201.4 222.583 201.87 222.423 202.37C222.283 202.85 222.123 203.35 221.943 203.87C221.783 204.39 221.613 204.89 221.433 205.37C221.273 205.85 221.113 206.31 220.953 206.75L216.723 218H212.253ZM216.093 213.59L217.593 209.93H227.163L228.693 213.59H216.093Z" fill="#666666"/>
<rect x="94.5" y="185.5" width="156" height="44" rx="9.5" stroke="#777777" stroke-width="5"/>
</g>
<defs>
<linearGradient id="paint0_linear_197_2" x1="124.674" y1="51.1877" x2="136.196" y2="-30.1926" gradientUnits="userSpaceOnUse">
<stop stop-color="#AC44BB"/>
<stop offset="1" stop-color="#0B3FC2"/>
</linearGradient>
<linearGradient id="paint1_linear_197_2" x1="84.6441" y1="85.917" x2="107.295" y2="9.63094" gradientUnits="userSpaceOnUse">
<stop stop-color="#AC44BB"/>
<stop offset="1" stop-color="#0B3FC2"/>
</linearGradient>
<linearGradient id="paint2_linear_197_2" x1="123.292" y1="120.646" x2="135.273" y2="39.4018" gradientUnits="userSpaceOnUse">
<stop stop-color="#AC44BB"/>
<stop offset="1" stop-color="#0B3FC2"/>
</linearGradient>
<linearGradient id="paint3_linear_197_2" x1="199.677" y1="-1.34197" x2="134.106" y2="44.266" gradientUnits="userSpaceOnUse">
<stop stop-color="#340FCF"/>
<stop offset="1" stop-color="#AD44BB"/>
</linearGradient>
<linearGradient id="paint4_linear_197_2" x1="236.508" y1="-1.34197" x2="173.725" y2="37.7782" gradientUnits="userSpaceOnUse">
<stop stop-color="#340FCF"/>
<stop offset="1" stop-color="#AD44BB"/>
</linearGradient>
<linearGradient id="paint5_linear_197_2" x1="293.927" y1="-1.34197" x2="225.98" y2="52.0237" gradientUnits="userSpaceOnUse">
<stop stop-color="#340FCF"/>
<stop offset="1" stop-color="#AD44BB"/>
</linearGradient>
<linearGradient id="paint6_linear_197_2" x1="340.925" y1="-1.34197" x2="271.799" y2="57.9573" gradientUnits="userSpaceOnUse">
<stop stop-color="#340FCF"/>
<stop offset="1" stop-color="#AD44BB"/>
</linearGradient>
<linearGradient id="paint7_linear_197_2" x1="367.142" y1="-1.34197" x2="304.359" y2="37.7782" gradientUnits="userSpaceOnUse">
<stop stop-color="#340FCF"/>
<stop offset="1" stop-color="#AD44BB"/>
</linearGradient>
<clipPath id="clip0_197_2">
<rect width="345" height="241" fill="white"/>
</clipPath>
</defs>
</svg>
